<?xml version="1.0" encoding="utf-8" standalone="no"?>
<!DOCTYPE svg PUBLIC "-//W3C//DTD SVG 1.1//EN"
  "http://www.w3.org/Graphics/SVG/1.1/DTD/svg11.dtd">
<svg xmlns:xlink="http://www.w3.org/1999/xlink" width="518.4pt" height="331.2pt" viewBox="0 0 518.4 331.2" xmlns="http://www.w3.org/2000/svg" version="1.1">
 <metadata>
  <rdf:RDF xmlns:dc="http://purl.org/dc/elements/1.1/" xmlns:cc="http://creativecommons.org/ns#" xmlns:rdf="http://www.w3.org/1999/02/22-rdf-syntax-ns#">
   <cc:Work>
    <dc:type rdf:resource="http://purl.org/dc/dcmitype/StillImage"/>
    <dc:date>2026-06-13T05:42:08.783890</dc:date>
    <dc:format>image/svg+xml</dc:format>
    <dc:creator>
     <cc:Agent>
      <dc:title>Matplotlib v3.9.4, https://matplotlib.org/</dc:title>
     </cc:Agent>
    </dc:creator>
   </cc:Work>
  </rdf:RDF>
 </metadata>
 <defs>
  <style type="text/css">*{stroke-linejoin: round; stroke-linecap: butt}</style>
 </defs>
 <g id="figure_1">
  <g id="patch_1">
   <path d="M 0 331.2 
L 518.4 331.2 
L 518.4 0 
L 0 0 
z
" style="fill: #ffffff"/>
  </g>
  <g id="axes_1">
   <g id="patch_2">
    <path d="M 47.72 289.24 
L 507.6 289.24 
L 507.6 26.88 
L 47.72 26.88 
z
" style="fill: #ffffff"/>
   </g>
   <g id="matplotlib.axis_1">
    <g id="xtick_1">
     <g id="line2d_1">
      <path d="M 61.987561 289.24 
L 61.987561 26.88 
" clip-path="url(#p717b39676c)" style="fill: none; stroke: #b0b0b0; stroke-opacity: 0.25; stroke-width: 0.8; stroke-linecap: square"/>
     </g>
     <g id="line2d_2">
      <defs>
       <path id="m4e97b1b69a" d="M 0 0 
L 0 3.5 
" style="stroke: #000000; stroke-width: 0.8"/>
      </defs>
      <g>
       <use xlink:href="#m4e97b1b69a" x="61.987561" y="289.24" style="stroke: #000000; stroke-width: 0.8"/>
      </g>
     </g>
     <g id="text_1">
      <!-- 0 -->
      <g transform="translate(58.806311 303.838437) scale(0.1 -0.1)">
       <defs>
        <path id="DejaVuSans-30" d="M 2034 4250 
Q 1547 4250 1301 3770 
Q 1056 3291 1056 2328 
Q 1056 1369 1301 889 
Q 1547 409 2034 409 
Q 2525 409 2770 889 
Q 3016 1369 3016 2328 
Q 3016 3291 2770 3770 
Q 2525 4250 2034 4250 
z
M 2034 4750 
Q 2819 4750 3233 4129 
Q 3647 3509 3647 2328 
Q 3647 1150 3233 529 
Q 2819 -91 2034 -91 
Q 1250 -91 836 529 
Q 422 1150 422 2328 
Q 422 3509 836 4129 
Q 1250 4750 2034 4750 
z
" transform="scale(0.015625)"/>
       </defs>
       <use xlink:href="#DejaVuSans-30"/>
      </g>
     </g>
    </g>
    <g id="xtick_2">
     <g id="line2d_3">
      <path d="M 144.938499 289.24 
L 144.938499 26.88 
" clip-path="url(#p717b39676c)" style="fill: none; stroke: #b0b0b0; stroke-opacity: 0.25; stroke-width: 0.8; stroke-linecap: square"/>
     </g>
     <g id="line2d_4">
      <g>
       <use xlink:href="#m4e97b1b69a" x="144.938499" y="289.24" style="stroke: #000000; stroke-width: 0.8"/>
      </g>
     </g>
     <g id="text_2">
      <!-- 50 -->
      <g transform="translate(138.575999 303.838437) scale(0.1 -0.1)">
       <defs>
        <path id="DejaVuSans-35" d="M 691 4666 
L 3169 4666 
L 3169 4134 
L 1269 4134 
L 1269 2991 
Q 1406 3038 1543 3061 
Q 1681 3084 1819 3084 
Q 2600 3084 3056 2656 
Q 3513 2228 3513 1497 
Q 3513 744 3044 326 
Q 2575 -91 1722 -91 
Q 1428 -91 1123 -41 
Q 819 9 494 109 
L 494 744 
Q 775 591 1075 516 
Q 1375 441 1709 441 
Q 2250 441 2565 725 
Q 2881 1009 2881 1497 
Q 2881 1984 2565 2268 
Q 2250 2553 1709 2553 
Q 1456 2553 1204 2497 
Q 953 2441 691 2322 
L 691 4666 
z
" transform="scale(0.015625)"/>
       </defs>
       <use xlink:href="#DejaVuSans-35"/>
       <use xlink:href="#DejaVuSans-30" x="63.623047"/>
      </g>
     </g>
    </g>
    <g id="xtick_3">
     <g id="line2d_5">
      <path d="M 227.889437 289.24 
L 227.889437 26.88 
" clip-path="url(#p717b39676c)" style="fill: none; stroke: #b0b0b0; stroke-opacity: 0.25; stroke-width: 0.8; stroke-linecap: square"/>
     </g>
     <g id="line2d_6">
      <g>
       <use xlink:href="#m4e97b1b69a" x="227.889437" y="289.24" style="stroke: #000000; stroke-width: 0.8"/>
      </g>
     </g>
     <g id="text_3">
      <!-- 100 -->
      <g transform="translate(218.345687 303.838437) scale(0.1 -0.1)">
       <defs>
        <path id="DejaVuSans-31" d="M 794 531 
L 1825 531 
L 1825 4091 
L 703 3866 
L 703 4441 
L 1819 4666 
L 2450 4666 
L 2450 531 
L 3481 531 
L 3481 0 
L 794 0 
L 794 531 
z
" transform="scale(0.015625)"/>
       </defs>
       <use xlink:href="#DejaVuSans-31"/>
       <use xlink:href="#DejaVuSans-30" x="63.623047"/>
       <use xlink:href="#DejaVuSans-30" x="127.246094"/>
      </g>
     </g>
    </g>
    <g id="xtick_4">
     <g id="line2d_7">
      <path d="M 310.840375 289.24 
L 310.840375 26.88 
" clip-path="url(#p717b39676c)" style="fill: none; stroke: #b0b0b0; stroke-opacity: 0.25; stroke-width: 0.8; stroke-linecap: square"/>
     </g>
     <g id="line2d_8">
      <g>
       <use xlink:href="#m4e97b1b69a" x="310.840375" y="289.24" style="stroke: #000000; stroke-width: 0.8"/>
      </g>
     </g>
     <g id="text_4">
      <!-- 150 -->
      <g transform="translate(301.296625 303.838437) scale(0.1 -0.1)">
       <use xlink:href="#DejaVuSans-31"/>
       <use xlink:href="#DejaVuSans-35" x="63.623047"/>
       <use xlink:href="#DejaVuSans-30" x="127.246094"/>
      </g>
     </g>
    </g>
    <g id="xtick_5">
     <g id="line2d_9">
      <path d="M 393.791313 289.24 
L 393.791313 26.88 
" clip-path="url(#p717b39676c)" style="fill: none; stroke: #b0b0b0; stroke-opacity: 0.25; stroke-width: 0.8; stroke-linecap: square"/>
     </g>
     <g id="line2d_10">
      <g>
       <use xlink:href="#m4e97b1b69a" x="393.791313" y="289.24" style="stroke: #000000; stroke-width: 0.8"/>
      </g>
     </g>
     <g id="text_5">
      <!-- 200 -->
      <g transform="translate(384.247563 303.838437) scale(0.1 -0.1)">
       <defs>
        <path id="DejaVuSans-32" d="M 1228 531 
L 3431 531 
L 3431 0 
L 469 0 
L 469 531 
Q 828 903 1448 1529 
Q 2069 2156 2228 2338 
Q 2531 2678 2651 2914 
Q 2772 3150 2772 3378 
Q 2772 3750 2511 3984 
Q 2250 4219 1831 4219 
Q 1534 4219 1204 4116 
Q 875 4013 500 3803 
L 500 4441 
Q 881 4594 1212 4672 
Q 1544 4750 1819 4750 
Q 2544 4750 2975 4387 
Q 3406 4025 3406 3419 
Q 3406 3131 3298 2873 
Q 3191 2616 2906 2266 
Q 2828 2175 2409 1742 
Q 1991 1309 1228 531 
z
" transform="scale(0.015625)"/>
       </defs>
       <use xlink:href="#DejaVuSans-32"/>
       <use xlink:href="#DejaVuSans-30" x="63.623047"/>
       <use xlink:href="#DejaVuSans-30" x="127.246094"/>
      </g>
     </g>
    </g>
    <g id="xtick_6">
     <g id="line2d_11">
      <path d="M 476.742251 289.24 
L 476.742251 26.88 
" clip-path="url(#p717b39676c)" style="fill: none; stroke: #b0b0b0; stroke-opacity: 0.25; stroke-width: 0.8; stroke-linecap: square"/>
     </g>
     <g id="line2d_12">
      <g>
       <use xlink:href="#m4e97b1b69a" x="476.742251" y="289.24" style="stroke: #000000; stroke-width: 0.8"/>
      </g>
     </g>
     <g id="text_6">
      <!-- 250 -->
      <g transform="translate(467.198501 303.838437) scale(0.1 -0.1)">
       <use xlink:href="#DejaVuSans-32"/>
       <use xlink:href="#DejaVuSans-35" x="63.623047"/>
       <use xlink:href="#DejaVuSans-30" x="127.246094"/>
      </g>
     </g>
    </g>
    <g id="text_7">
     <!-- Intrinsic dimension k -->
     <g transform="translate(225.725625 317.516562) scale(0.1 -0.1)">
      <defs>
       <path id="DejaVuSans-49" d="M 628 4666 
L 1259 4666 
L 1259 0 
L 628 0 
L 628 4666 
z
" transform="scale(0.015625)"/>
       <path id="DejaVuSans-6e" d="M 3513 2113 
L 3513 0 
L 2938 0 
L 2938 2094 
Q 2938 2591 2744 2837 
Q 2550 3084 2163 3084 
Q 1697 3084 1428 2787 
Q 1159 2491 1159 1978 
L 1159 0 
L 581 0 
L 581 3500 
L 1159 3500 
L 1159 2956 
Q 1366 3272 1645 3428 
Q 1925 3584 2291 3584 
Q 2894 3584 3203 3211 
Q 3513 2838 3513 2113 
z
" transform="scale(0.015625)"/>
       <path id="DejaVuSans-74" d="M 1172 4494 
L 1172 3500 
L 2356 3500 
L 2356 3053 
L 1172 3053 
L 1172 1153 
Q 1172 725 1289 603 
Q 1406 481 1766 481 
L 2356 481 
L 2356 0 
L 1766 0 
Q 1100 0 847 248 
Q 594 497 594 1153 
L 594 3053 
L 172 3053 
L 172 3500 
L 594 3500 
L 594 4494 
L 1172 4494 
z
" transform="scale(0.015625)"/>
       <path id="DejaVuSans-72" d="M 2631 2963 
Q 2534 3019 2420 3045 
Q 2306 3072 2169 3072 
Q 1681 3072 1420 2755 
Q 1159 2438 1159 1844 
L 1159 0 
L 581 0 
L 581 3500 
L 1159 3500 
L 1159 2956 
Q 1341 3275 1631 3429 
Q 1922 3584 2338 3584 
Q 2397 3584 2469 3576 
Q 2541 3569 2628 3553 
L 2631 2963 
z
" transform="scale(0.015625)"/>
       <path id="DejaVuSans-69" d="M 603 3500 
L 1178 3500 
L 1178 0 
L 603 0 
L 603 3500 
z
M 603 4863 
L 1178 4863 
L 1178 4134 
L 603 4134 
L 603 4863 
z
" transform="scale(0.015625)"/>
       <path id="DejaVuSans-73" d="M 2834 3397 
L 2834 2853 
Q 2591 2978 2328 3040 
Q 2066 3103 1784 3103 
Q 1356 3103 1142 2972 
Q 928 2841 928 2578 
Q 928 2378 1081 2264 
Q 1234 2150 1697 2047 
L 1894 2003 
Q 2506 1872 2764 1633 
Q 3022 1394 3022 966 
Q 3022 478 2636 193 
Q 2250 -91 1575 -91 
Q 1294 -91 989 -36 
Q 684 19 347 128 
L 347 722 
Q 666 556 975 473 
Q 1284 391 1588 391 
Q 1994 391 2212 530 
Q 2431 669 2431 922 
Q 2431 1156 2273 1281 
Q 2116 1406 1581 1522 
L 1381 1569 
Q 847 1681 609 1914 
Q 372 2147 372 2553 
Q 372 3047 722 3315 
Q 1072 3584 1716 3584 
Q 2034 3584 2315 3537 
Q 2597 3491 2834 3397 
z
" transform="scale(0.015625)"/>
       <path id="DejaVuSans-63" d="M 3122 3366 
L 3122 2828 
Q 2878 2963 2633 3030 
Q 2388 3097 2138 3097 
Q 1578 3097 1268 2742 
Q 959 2388 959 1747 
Q 959 1106 1268 751 
Q 1578 397 2138 397 
Q 2388 397 2633 464 
Q 2878 531 3122 666 
L 3122 134 
Q 2881 22 2623 -34 
Q 2366 -91 2075 -91 
Q 1284 -91 818 406 
Q 353 903 353 1747 
Q 353 2603 823 3093 
Q 1294 3584 2113 3584 
Q 2378 3584 2631 3529 
Q 2884 3475 3122 3366 
z
" transform="scale(0.015625)"/>
       <path id="DejaVuSans-20" transform="scale(0.015625)"/>
       <path id="DejaVuSans-64" d="M 2906 2969 
L 2906 4863 
L 3481 4863 
L 3481 0 
L 2906 0 
L 2906 525 
Q 2725 213 2448 61 
Q 2172 -91 1784 -91 
Q 1150 -91 751 415 
Q 353 922 353 1747 
Q 353 2572 751 3078 
Q 1150 3584 1784 3584 
Q 2172 3584 2448 3432 
Q 2725 3281 2906 2969 
z
M 947 1747 
Q 947 1113 1208 752 
Q 1469 391 1925 391 
Q 2381 391 2643 752 
Q 2906 1113 2906 1747 
Q 2906 2381 2643 2742 
Q 2381 3103 1925 3103 
Q 1469 3103 1208 2742 
Q 947 2381 947 1747 
z
" transform="scale(0.015625)"/>
       <path id="DejaVuSans-6d" d="M 3328 2828 
Q 3544 3216 3844 3400 
Q 4144 3584 4550 3584 
Q 5097 3584 5394 3201 
Q 5691 2819 5691 2113 
L 5691 0 
L 5113 0 
L 5113 2094 
Q 5113 2597 4934 2840 
Q 4756 3084 4391 3084 
Q 3944 3084 3684 2787 
Q 3425 2491 3425 1978 
L 3425 0 
L 2847 0 
L 2847 2094 
Q 2847 2600 2669 2842 
Q 2491 3084 2119 3084 
Q 1678 3084 1418 2786 
Q 1159 2488 1159 1978 
L 1159 0 
L 581 0 
L 581 3500 
L 1159 3500 
L 1159 2956 
Q 1356 3278 1631 3431 
Q 1906 3584 2284 3584 
Q 2666 3584 2933 3390 
Q 3200 3197 3328 2828 
z
" transform="scale(0.015625)"/>
       <path id="DejaVuSans-65" d="M 3597 1894 
L 3597 1613 
L 953 1613 
Q 991 1019 1311 708 
Q 1631 397 2203 397 
Q 2534 397 2845 478 
Q 3156 559 3463 722 
L 3463 178 
Q 3153 47 2828 -22 
Q 2503 -91 2169 -91 
Q 1331 -91 842 396 
Q 353 884 353 1716 
Q 353 2575 817 3079 
Q 1281 3584 2069 3584 
Q 2775 3584 3186 3129 
Q 3597 2675 3597 1894 
z
M 3022 2063 
Q 3016 2534 2758 2815 
Q 2500 3097 2075 3097 
Q 1594 3097 1305 2825 
Q 1016 2553 972 2059 
L 3022 2063 
z
" transform="scale(0.015625)"/>
       <path id="DejaVuSans-6f" d="M 1959 3097 
Q 1497 3097 1228 2736 
Q 959 2375 959 1747 
Q 959 1119 1226 758 
Q 1494 397 1959 397 
Q 2419 397 2687 759 
Q 2956 1122 2956 1747 
Q 2956 2369 2687 2733 
Q 2419 3097 1959 3097 
z
M 1959 3584 
Q 2709 3584 3137 3096 
Q 3566 2609 3566 1747 
Q 3566 888 3137 398 
Q 2709 -91 1959 -91 
Q 1206 -91 779 398 
Q 353 888 353 1747 
Q 353 2609 779 3096 
Q 1206 3584 1959 3584 
z
" transform="scale(0.015625)"/>
       <path id="DejaVuSans-6b" d="M 581 4863 
L 1159 4863 
L 1159 1991 
L 2875 3500 
L 3609 3500 
L 1753 1863 
L 3688 0 
L 2938 0 
L 1159 1709 
L 1159 0 
L 581 0 
L 581 4863 
z
" transform="scale(0.015625)"/>
      </defs>
      <use xlink:href="#DejaVuSans-49"/>
      <use xlink:href="#DejaVuSans-6e" x="29.492188"/>
      <use xlink:href="#DejaVuSans-74" x="92.871094"/>
      <use xlink:href="#DejaVuSans-72" x="132.080078"/>
      <use xlink:href="#DejaVuSans-69" x="173.193359"/>
      <use xlink:href="#DejaVuSans-6e" x="200.976562"/>
      <use xlink:href="#DejaVuSans-73" x="264.355469"/>
      <use xlink:href="#DejaVuSans-69" x="316.455078"/>
      <use xlink:href="#DejaVuSans-63" x="344.238281"/>
      <use xlink:href="#DejaVuSans-20" x="399.21875"/>
      <use xlink:href="#DejaVuSans-64" x="431.005859"/>
      <use xlink:href="#DejaVuSans-69" x="494.482422"/>
      <use xlink:href="#DejaVuSans-6d" x="522.265625"/>
      <use xlink:href="#DejaVuSans-65" x="619.677734"/>
      <use xlink:href="#DejaVuSans-6e" x="681.201172"/>
      <use xlink:href="#DejaVuSans-73" x="744.580078"/>
      <use xlink:href="#DejaVuSans-69" x="796.679688"/>
      <use xlink:href="#DejaVuSans-6f" x="824.462891"/>
      <use xlink:href="#DejaVuSans-6e" x="885.644531"/>
      <use xlink:href="#DejaVuSans-20" x="949.023438"/>
      <use xlink:href="#DejaVuSans-6b" x="980.810547"/>
     </g>
    </g>
   </g>
   <g id="matplotlib.axis_2">
    <g id="ytick_1">
     <g id="line2d_13">
      <path d="M 47.72 277.31455 
L 507.6 277.31455 
" clip-path="url(#p717b39676c)" style="fill: none; stroke: #b0b0b0; stroke-opacity: 0.25; stroke-width: 0.8; stroke-linecap: square"/>
     </g>
     <g id="line2d_14">
      <defs>
       <path id="m9b569a98f1" d="M 0 0 
L -3.5 0 
" style="stroke: #000000; stroke-width: 0.8"/>
      </defs>
      <g>
       <use xlink:href="#m9b569a98f1" x="47.72" y="277.31455" style="stroke: #000000; stroke-width: 0.8"/>
      </g>
     </g>
     <g id="text_8">
      <!-- 0.0 -->
      <g transform="translate(24.816875 281.113769) scale(0.1 -0.1)">
       <defs>
        <path id="DejaVuSans-2e" d="M 684 794 
L 1344 794 
L 1344 0 
L 684 0 
L 684 794 
z
" transform="scale(0.015625)"/>
       </defs>
       <use xlink:href="#DejaVuSans-30"/>
       <use xlink:href="#DejaVuSans-2e" x="63.623047"/>
       <use xlink:href="#DejaVuSans-30" x="95.410156"/>
      </g>
     </g>
    </g>
    <g id="ytick_2">
     <g id="line2d_15">
      <path d="M 47.72 227.298528 
L 507.6 227.298528 
" clip-path="url(#p717b39676c)" style="fill: none; stroke: #b0b0b0; stroke-opacity: 0.25; stroke-width: 0.8; stroke-linecap: square"/>
     </g>
     <g id="line2d_16">
      <g>
       <use xlink:href="#m9b569a98f1" x="47.72" y="227.298528" style="stroke: #000000; stroke-width: 0.8"/>
      </g>
     </g>
     <g id="text_9">
      <!-- 0.1 -->
      <g transform="translate(24.816875 231.097747) scale(0.1 -0.1)">
       <use xlink:href="#DejaVuSans-30"/>
       <use xlink:href="#DejaVuSans-2e" x="63.623047"/>
       <use xlink:href="#DejaVuSans-31" x="95.410156"/>
      </g>
     </g>
    </g>
    <g id="ytick_3">
     <g id="line2d_17">
      <path d="M 47.72 177.282507 
L 507.6 177.282507 
" clip-path="url(#p717b39676c)" style="fill: none; stroke: #b0b0b0; stroke-opacity: 0.25; stroke-width: 0.8; stroke-linecap: square"/>
     </g>
     <g id="line2d_18">
      <g>
       <use xlink:href="#m9b569a98f1" x="47.72" y="177.282507" style="stroke: #000000; stroke-width: 0.8"/>
      </g>
     </g>
     <g id="text_10">
      <!-- 0.2 -->
      <g transform="translate(24.816875 181.081726) scale(0.1 -0.1)">
       <use xlink:href="#DejaVuSans-30"/>
       <use xlink:href="#DejaVuSans-2e" x="63.623047"/>
       <use xlink:href="#DejaVuSans-32" x="95.410156"/>
      </g>
     </g>
    </g>
    <g id="ytick_4">
     <g id="line2d_19">
      <path d="M 47.72 127.266485 
L 507.6 127.266485 
" clip-path="url(#p717b39676c)" style="fill: none; stroke: #b0b0b0; stroke-opacity: 0.25; stroke-width: 0.8; stroke-linecap: square"/>
     </g>
     <g id="line2d_20">
      <g>
       <use xlink:href="#m9b569a98f1" x="47.72" y="127.266485" style="stroke: #000000; stroke-width: 0.8"/>
      </g>
     </g>
     <g id="text_11">
      <!-- 0.3 -->
      <g transform="translate(24.816875 131.065704) scale(0.1 -0.1)">
       <defs>
        <path id="DejaVuSans-33" d="M 2597 2516 
Q 3050 2419 3304 2112 
Q 3559 1806 3559 1356 
Q 3559 666 3084 287 
Q 2609 -91 1734 -91 
Q 1441 -91 1130 -33 
Q 819 25 488 141 
L 488 750 
Q 750 597 1062 519 
Q 1375 441 1716 441 
Q 2309 441 2620 675 
Q 2931 909 2931 1356 
Q 2931 1769 2642 2001 
Q 2353 2234 1838 2234 
L 1294 2234 
L 1294 2753 
L 1863 2753 
Q 2328 2753 2575 2939 
Q 2822 3125 2822 3475 
Q 2822 3834 2567 4026 
Q 2313 4219 1838 4219 
Q 1578 4219 1281 4162 
Q 984 4106 628 3988 
L 628 4550 
Q 988 4650 1302 4700 
Q 1616 4750 1894 4750 
Q 2613 4750 3031 4423 
Q 3450 4097 3450 3541 
Q 3450 3153 3228 2886 
Q 3006 2619 2597 2516 
z
" transform="scale(0.015625)"/>
       </defs>
       <use xlink:href="#DejaVuSans-30"/>
       <use xlink:href="#DejaVuSans-2e" x="63.623047"/>
       <use xlink:href="#DejaVuSans-33" x="95.410156"/>
      </g>
     </g>
    </g>
    <g id="ytick_5">
     <g id="line2d_21">
      <path d="M 47.72 77.250464 
L 507.6 77.250464 
" clip-path="url(#p717b39676c)" style="fill: none; stroke: #b0b0b0; stroke-opacity: 0.25; stroke-width: 0.8; stroke-linecap: square"/>
     </g>
     <g id="line2d_22">
      <g>
       <use xlink:href="#m9b569a98f1" x="47.72" y="77.250464" style="stroke: #000000; stroke-width: 0.8"/>
      </g>
     </g>
     <g id="text_12">
      <!-- 0.4 -->
      <g transform="translate(24.816875 81.049683) scale(0.1 -0.1)">
       <defs>
        <path id="DejaVuSans-34" d="M 2419 4116 
L 825 1625 
L 2419 1625 
L 2419 4116 
z
M 2253 4666 
L 3047 4666 
L 3047 1625 
L 3713 1625 
L 3713 1100 
L 3047 1100 
L 3047 0 
L 2419 0 
L 2419 1100 
L 313 1100 
L 313 1709 
L 2253 4666 
z
" transform="scale(0.015625)"/>
       </defs>
       <use xlink:href="#DejaVuSans-30"/>
       <use xlink:href="#DejaVuSans-2e" x="63.623047"/>
       <use xlink:href="#DejaVuSans-34" x="95.410156"/>
      </g>
     </g>
    </g>
    <g id="ytick_6">
     <g id="line2d_23">
      <path d="M 47.72 27.234442 
L 507.6 27.234442 
" clip-path="url(#p717b39676c)" style="fill: none; stroke: #b0b0b0; stroke-opacity: 0.25; stroke-width: 0.8; stroke-linecap: square"/>
     </g>
     <g id="line2d_24">
      <g>
       <use xlink:href="#m9b569a98f1" x="47.72" y="27.234442" style="stroke: #000000; stroke-width: 0.8"/>
      </g>
     </g>
     <g id="text_13">
      <!-- 0.5 -->
      <g transform="translate(24.816875 31.033661) scale(0.1 -0.1)">
       <use xlink:href="#DejaVuSans-30"/>
       <use xlink:href="#DejaVuSans-2e" x="63.623047"/>
       <use xlink:href="#DejaVuSans-35" x="95.410156"/>
      </g>
     </g>
    </g>
    <g id="text_14">
     <!-- Mean test normalized residual error -->
     <g transform="translate(18.737188 247.336563) rotate(-90) scale(0.1 -0.1)">
      <defs>
       <path id="DejaVuSans-4d" d="M 628 4666 
L 1569 4666 
L 2759 1491 
L 3956 4666 
L 4897 4666 
L 4897 0 
L 4281 0 
L 4281 4097 
L 3078 897 
L 2444 897 
L 1241 4097 
L 1241 0 
L 628 0 
L 628 4666 
z
" transform="scale(0.015625)"/>
       <path id="DejaVuSans-61" d="M 2194 1759 
Q 1497 1759 1228 1600 
Q 959 1441 959 1056 
Q 959 750 1161 570 
Q 1363 391 1709 391 
Q 2188 391 2477 730 
Q 2766 1069 2766 1631 
L 2766 1759 
L 2194 1759 
z
M 3341 1997 
L 3341 0 
L 2766 0 
L 2766 531 
Q 2569 213 2275 61 
Q 1981 -91 1556 -91 
Q 1019 -91 701 211 
Q 384 513 384 1019 
Q 384 1609 779 1909 
Q 1175 2209 1959 2209 
L 2766 2209 
L 2766 2266 
Q 2766 2663 2505 2880 
Q 2244 3097 1772 3097 
Q 1472 3097 1187 3025 
Q 903 2953 641 2809 
L 641 3341 
Q 956 3463 1253 3523 
Q 1550 3584 1831 3584 
Q 2591 3584 2966 3190 
Q 3341 2797 3341 1997 
z
" transform="scale(0.015625)"/>
       <path id="DejaVuSans-6c" d="M 603 4863 
L 1178 4863 
L 1178 0 
L 603 0 
L 603 4863 
z
" transform="scale(0.015625)"/>
       <path id="DejaVuSans-7a" d="M 353 3500 
L 3084 3500 
L 3084 2975 
L 922 459 
L 3084 459 
L 3084 0 
L 275 0 
L 275 525 
L 2438 3041 
L 353 3041 
L 353 3500 
z
" transform="scale(0.015625)"/>
       <path id="DejaVuSans-75" d="M 544 1381 
L 544 3500 
L 1119 3500 
L 1119 1403 
Q 1119 906 1312 657 
Q 1506 409 1894 409 
Q 2359 409 2629 706 
Q 2900 1003 2900 1516 
L 2900 3500 
L 3475 3500 
L 3475 0 
L 2900 0 
L 2900 538 
Q 2691 219 2414 64 
Q 2138 -91 1772 -91 
Q 1169 -91 856 284 
Q 544 659 544 1381 
z
M 1991 3584 
L 1991 3584 
z
" transform="scale(0.015625)"/>
      </defs>
      <use xlink:href="#DejaVuSans-4d"/>
      <use xlink:href="#DejaVuSans-65" x="86.279297"/>
      <use xlink:href="#DejaVuSans-61" x="147.802734"/>
      <use xlink:href="#DejaVuSans-6e" x="209.082031"/>
      <use xlink:href="#DejaVuSans-20" x="272.460938"/>
      <use xlink:href="#DejaVuSans-74" x="304.248047"/>
      <use xlink:href="#DejaVuSans-65" x="343.457031"/>
      <use xlink:href="#DejaVuSans-73" x="404.980469"/>
      <use xlink:href="#DejaVuSans-74" x="457.080078"/>
      <use xlink:href="#DejaVuSans-20" x="496.289062"/>
      <use xlink:href="#DejaVuSans-6e" x="528.076172"/>
      <use xlink:href="#DejaVuSans-6f" x="591.455078"/>
      <use xlink:href="#DejaVuSans-72" x="652.636719"/>
      <use xlink:href="#DejaVuSans-6d" x="692"/>
      <use xlink:href="#DejaVuSans-61" x="789.412109"/>
      <use xlink:href="#DejaVuSans-6c" x="850.691406"/>
      <use xlink:href="#DejaVuSans-69" x="878.474609"/>
      <use xlink:href="#DejaVuSans-7a" x="906.257812"/>
      <use xlink:href="#DejaVuSans-65" x="958.748047"/>
      <use xlink:href="#DejaVuSans-64" x="1020.271484"/>
      <use xlink:href="#DejaVuSans-20" x="1083.748047"/>
      <use xlink:href="#DejaVuSans-72" x="1115.535156"/>
      <use xlink:href="#DejaVuSans-65" x="1154.398438"/>
      <use xlink:href="#DejaVuSans-73" x="1215.921875"/>
      <use xlink:href="#DejaVuSans-69" x="1268.021484"/>
      <use xlink:href="#DejaVuSans-64" x="1295.804688"/>
      <use xlink:href="#DejaVuSans-75" x="1359.28125"/>
      <use xlink:href="#DejaVuSans-61" x="1422.660156"/>
      <use xlink:href="#DejaVuSans-6c" x="1483.939453"/>
      <use xlink:href="#DejaVuSans-20" x="1511.722656"/>
      <use xlink:href="#DejaVuSans-65" x="1543.509766"/>
      <use xlink:href="#DejaVuSans-72" x="1605.033203"/>
      <use xlink:href="#DejaVuSans-72" x="1644.396484"/>
      <use xlink:href="#DejaVuSans-6f" x="1683.259766"/>
      <use xlink:href="#DejaVuSans-72" x="1744.441406"/>
     </g>
    </g>
   </g>
   <g id="line2d_25">
    <path d="M 68.623636 277.314543 
L 75.259711 277.314543 
L 88.531861 277.314544 
L 115.076162 277.314543 
L 168.164762 277.314544 
L 274.341962 277.314544 
L 486.696364 277.314545 
" clip-path="url(#p717b39676c)" style="fill: none; stroke: #2764c5; stroke-width: 1.5; stroke-linecap: square"/>
    <defs>
     <path id="m3ab7e10218" d="M 0 3 
C 0.795609 3 1.55874 2.683901 2.12132 2.12132 
C 2.683901 1.55874 3 0.795609 3 0 
C 3 -0.795609 2.683901 -1.55874 2.12132 -2.12132 
C 1.55874 -2.683901 0.795609 -3 0 -3 
C -0.795609 -3 -1.55874 -2.683901 -2.12132 -2.12132 
C -2.683901 -1.55874 -3 -0.795609 -3 0 
C -3 0.795609 -2.683901 1.55874 -2.12132 2.12132 
C -1.55874 2.683901 -0.795609 3 0 3 
z
" style="stroke: #2764c5"/>
    </defs>
    <g clip-path="url(#p717b39676c)">
     <use xlink:href="#m3ab7e10218" x="68.623636" y="277.314543" style="fill: #2764c5; stroke: #2764c5"/>
     <use xlink:href="#m3ab7e10218" x="75.259711" y="277.314543" style="fill: #2764c5; stroke: #2764c5"/>
     <use xlink:href="#m3ab7e10218" x="88.531861" y="277.314544" style="fill: #2764c5; stroke: #2764c5"/>
     <use xlink:href="#m3ab7e10218" x="115.076162" y="277.314543" style="fill: #2764c5; stroke: #2764c5"/>
     <use xlink:href="#m3ab7e10218" x="168.164762" y="277.314544" style="fill: #2764c5; stroke: #2764c5"/>
     <use xlink:href="#m3ab7e10218" x="274.341962" y="277.314544" style="fill: #2764c5; stroke: #2764c5"/>
     <use xlink:href="#m3ab7e10218" x="486.696364" y="277.314545" style="fill: #2764c5; stroke: #2764c5"/>
    </g>
   </g>
   <g id="line2d_26">
    <path d="M 68.623636 64.697856 
L 75.259711 62.930051 
L 88.531861 63.885689 
L 115.076162 63.115244 
L 168.164762 63.246714 
L 274.341962 63.170973 
L 486.696364 62.899039 
" clip-path="url(#p717b39676c)" style="fill: none; stroke: #d04a3a; stroke-width: 1.5; stroke-linecap: square"/>
    <defs>
     <path id="mef90dbf506" d="M 0 3 
C 0.795609 3 1.55874 2.683901 2.12132 2.12132 
C 2.683901 1.55874 3 0.795609 3 0 
C 3 -0.795609 2.683901 -1.55874 2.12132 -2.12132 
C 1.55874 -2.683901 0.795609 -3 0 -3 
C -0.795609 -3 -1.55874 -2.683901 -2.12132 -2.12132 
C -2.683901 -1.55874 -3 -0.795609 -3 0 
C -3 0.795609 -2.683901 1.55874 -2.12132 2.12132 
C -1.55874 2.683901 -0.795609 3 0 3 
z
" style="stroke: #d04a3a"/>
    </defs>
    <g clip-path="url(#p717b39676c)">
     <use xlink:href="#mef90dbf506" x="68.623636" y="64.697856" style="fill: #d04a3a; stroke: #d04a3a"/>
     <use xlink:href="#mef90dbf506" x="75.259711" y="62.930051" style="fill: #d04a3a; stroke: #d04a3a"/>
     <use xlink:href="#mef90dbf506" x="88.531861" y="63.885689" style="fill: #d04a3a; stroke: #d04a3a"/>
     <use xlink:href="#mef90dbf506" x="115.076162" y="63.115244" style="fill: #d04a3a; stroke: #d04a3a"/>
     <use xlink:href="#mef90dbf506" x="168.164762" y="63.246714" style="fill: #d04a3a; stroke: #d04a3a"/>
     <use xlink:href="#mef90dbf506" x="274.341962" y="63.170973" style="fill: #d04a3a; stroke: #d04a3a"/>
     <use xlink:href="#mef90dbf506" x="486.696364" y="62.899039" style="fill: #d04a3a; stroke: #d04a3a"/>
    </g>
   </g>
   <g id="line2d_27">
    <path d="M 68.623636 198.071309 
L 75.259711 172.07174 
L 88.531861 147.740039 
L 115.076162 110.193419 
L 168.164762 79.000571 
L 274.341962 52.108563 
L 486.696364 38.805455 
" clip-path="url(#p717b39676c)" style="fill: none; stroke: #3a8f58; stroke-width: 1.5; stroke-linecap: square"/>
    <defs>
     <path id="mab7d10f820" d="M 0 3 
C 0.795609 3 1.55874 2.683901 2.12132 2.12132 
C 2.683901 1.55874 3 0.795609 3 0 
C 3 -0.795609 2.683901 -1.55874 2.12132 -2.12132 
C 1.55874 -2.683901 0.795609 -3 0 -3 
C -0.795609 -3 -1.55874 -2.683901 -2.12132 -2.12132 
C -2.683901 -1.55874 -3 -0.795609 -3 0 
C -3 0.795609 -2.683901 1.55874 -2.12132 2.12132 
C -1.55874 2.683901 -0.795609 3 0 3 
z
" style="stroke: #3a8f58"/>
    </defs>
    <g clip-path="url(#p717b39676c)">
     <use xlink:href="#mab7d10f820" x="68.623636" y="198.071309" style="fill: #3a8f58; stroke: #3a8f58"/>
     <use xlink:href="#mab7d10f820" x="75.259711" y="172.07174" style="fill: #3a8f58; stroke: #3a8f58"/>
     <use xlink:href="#mab7d10f820" x="88.531861" y="147.740039" style="fill: #3a8f58; stroke: #3a8f58"/>
     <use xlink:href="#mab7d10f820" x="115.076162" y="110.193419" style="fill: #3a8f58; stroke: #3a8f58"/>
     <use xlink:href="#mab7d10f820" x="168.164762" y="79.000571" style="fill: #3a8f58; stroke: #3a8f58"/>
     <use xlink:href="#mab7d10f820" x="274.341962" y="52.108563" style="fill: #3a8f58; stroke: #3a8f58"/>
     <use xlink:href="#mab7d10f820" x="486.696364" y="38.805455" style="fill: #3a8f58; stroke: #3a8f58"/>
    </g>
   </g>
   <g id="line2d_28">
    <path d="M 68.623636 268.221493 
L 75.259711 261.633856 
L 88.531861 253.732176 
L 115.076162 236.433056 
L 168.164762 214.103264 
L 274.341962 181.365448 
L 486.696364 144.991129 
" clip-path="url(#p717b39676c)" style="fill: none; stroke: #8a4fb3; stroke-width: 1.5; stroke-linecap: square"/>
    <defs>
     <path id="m9bc7952d59" d="M 0 3 
C 0.795609 3 1.55874 2.683901 2.12132 2.12132 
C 2.683901 1.55874 3 0.795609 3 0 
C 3 -0.795609 2.683901 -1.55874 2.12132 -2.12132 
C 1.55874 -2.683901 0.795609 -3 0 -3 
C -0.795609 -3 -1.55874 -2.683901 -2.12132 -2.12132 
C -2.683901 -1.55874 -3 -0.795609 -3 0 
C -3 0.795609 -2.683901 1.55874 -2.12132 2.12132 
C -1.55874 2.683901 -0.795609 3 0 3 
z
" style="stroke: #8a4fb3"/>
    </defs>
    <g clip-path="url(#p717b39676c)">
     <use xlink:href="#m9bc7952d59" x="68.623636" y="268.221493" style="fill: #8a4fb3; stroke: #8a4fb3"/>
     <use xlink:href="#m9bc7952d59" x="75.259711" y="261.633856" style="fill: #8a4fb3; stroke: #8a4fb3"/>
     <use xlink:href="#m9bc7952d59" x="88.531861" y="253.732176" style="fill: #8a4fb3; stroke: #8a4fb3"/>
     <use xlink:href="#m9bc7952d59" x="115.076162" y="236.433056" style="fill: #8a4fb3; stroke: #8a4fb3"/>
     <use xlink:href="#m9bc7952d59" x="168.164762" y="214.103264" style="fill: #8a4fb3; stroke: #8a4fb3"/>
     <use xlink:href="#m9bc7952d59" x="274.341962" y="181.365448" style="fill: #8a4fb3; stroke: #8a4fb3"/>
     <use xlink:href="#m9bc7952d59" x="486.696364" y="144.991129" style="fill: #8a4fb3; stroke: #8a4fb3"/>
    </g>
   </g>
   <g id="patch_3">
    <path d="M 47.72 289.24 
L 47.72 26.88 
" style="fill: none; stroke: #000000; stroke-width: 0.8; stroke-linejoin: miter; stroke-linecap: square"/>
   </g>
   <g id="patch_4">
    <path d="M 507.6 289.24 
L 507.6 26.88 
" style="fill: none; stroke: #000000; stroke-width: 0.8; stroke-linejoin: miter; stroke-linecap: square"/>
   </g>
   <g id="patch_5">
    <path d="M 47.72 289.24 
L 507.6 289.24 
" style="fill: none; stroke: #000000; stroke-width: 0.8; stroke-linejoin: miter; stroke-linecap: square"/>
   </g>
   <g id="patch_6">
    <path d="M 47.72 26.88 
L 507.6 26.88 
" style="fill: none; stroke: #000000; stroke-width: 0.8; stroke-linejoin: miter; stroke-linecap: square"/>
   </g>
   <g id="text_15">
    <!-- Static LoRA+bias error vs intrinsic dimension at q=16 -->
    <g transform="translate(116.275937 20.88) scale(0.12 -0.12)">
     <defs>
      <path id="DejaVuSans-53" d="M 3425 4513 
L 3425 3897 
Q 3066 4069 2747 4153 
Q 2428 4238 2131 4238 
Q 1616 4238 1336 4038 
Q 1056 3838 1056 3469 
Q 1056 3159 1242 3001 
Q 1428 2844 1947 2747 
L 2328 2669 
Q 3034 2534 3370 2195 
Q 3706 1856 3706 1288 
Q 3706 609 3251 259 
Q 2797 -91 1919 -91 
Q 1588 -91 1214 -16 
Q 841 59 441 206 
L 441 856 
Q 825 641 1194 531 
Q 1563 422 1919 422 
Q 2459 422 2753 634 
Q 3047 847 3047 1241 
Q 3047 1584 2836 1778 
Q 2625 1972 2144 2069 
L 1759 2144 
Q 1053 2284 737 2584 
Q 422 2884 422 3419 
Q 422 4038 858 4394 
Q 1294 4750 2059 4750 
Q 2388 4750 2728 4690 
Q 3069 4631 3425 4513 
z
" transform="scale(0.015625)"/>
      <path id="DejaVuSans-4c" d="M 628 4666 
L 1259 4666 
L 1259 531 
L 3531 531 
L 3531 0 
L 628 0 
L 628 4666 
z
" transform="scale(0.015625)"/>
      <path id="DejaVuSans-52" d="M 2841 2188 
Q 3044 2119 3236 1894 
Q 3428 1669 3622 1275 
L 4263 0 
L 3584 0 
L 2988 1197 
Q 2756 1666 2539 1819 
Q 2322 1972 1947 1972 
L 1259 1972 
L 1259 0 
L 628 0 
L 628 4666 
L 2053 4666 
Q 2853 4666 3247 4331 
Q 3641 3997 3641 3322 
Q 3641 2881 3436 2590 
Q 3231 2300 2841 2188 
z
M 1259 4147 
L 1259 2491 
L 2053 2491 
Q 2509 2491 2742 2702 
Q 2975 2913 2975 3322 
Q 2975 3731 2742 3939 
Q 2509 4147 2053 4147 
L 1259 4147 
z
" transform="scale(0.015625)"/>
      <path id="DejaVuSans-41" d="M 2188 4044 
L 1331 1722 
L 3047 1722 
L 2188 4044 
z
M 1831 4666 
L 2547 4666 
L 4325 0 
L 3669 0 
L 3244 1197 
L 1141 1197 
L 716 0 
L 50 0 
L 1831 4666 
z
" transform="scale(0.015625)"/>
      <path id="DejaVuSans-2b" d="M 2944 4013 
L 2944 2272 
L 4684 2272 
L 4684 1741 
L 2944 1741 
L 2944 0 
L 2419 0 
L 2419 1741 
L 678 1741 
L 678 2272 
L 2419 2272 
L 2419 4013 
L 2944 4013 
z
" transform="scale(0.015625)"/>
      <path id="DejaVuSans-62" d="M 3116 1747 
Q 3116 2381 2855 2742 
Q 2594 3103 2138 3103 
Q 1681 3103 1420 2742 
Q 1159 2381 1159 1747 
Q 1159 1113 1420 752 
Q 1681 391 2138 391 
Q 2594 391 2855 752 
Q 3116 1113 3116 1747 
z
M 1159 2969 
Q 1341 3281 1617 3432 
Q 1894 3584 2278 3584 
Q 2916 3584 3314 3078 
Q 3713 2572 3713 1747 
Q 3713 922 3314 415 
Q 2916 -91 2278 -91 
Q 1894 -91 1617 61 
Q 1341 213 1159 525 
L 1159 0 
L 581 0 
L 581 4863 
L 1159 4863 
L 1159 2969 
z
" transform="scale(0.015625)"/>
      <path id="DejaVuSans-76" d="M 191 3500 
L 800 3500 
L 1894 563 
L 2988 3500 
L 3597 3500 
L 2284 0 
L 1503 0 
L 191 3500 
z
" transform="scale(0.015625)"/>
      <path id="DejaVuSans-71" d="M 947 1747 
Q 947 1113 1208 752 
Q 1469 391 1925 391 
Q 2381 391 2643 752 
Q 2906 1113 2906 1747 
Q 2906 2381 2643 2742 
Q 2381 3103 1925 3103 
Q 1469 3103 1208 2742 
Q 947 2381 947 1747 
z
M 2906 525 
Q 2725 213 2448 61 
Q 2172 -91 1784 -91 
Q 1150 -91 751 415 
Q 353 922 353 1747 
Q 353 2572 751 3078 
Q 1150 3584 1784 3584 
Q 2172 3584 2448 3432 
Q 2725 3281 2906 2969 
L 2906 3500 
L 3481 3500 
L 3481 -1331 
L 2906 -1331 
L 2906 525 
z
" transform="scale(0.015625)"/>
      <path id="DejaVuSans-3d" d="M 678 2906 
L 4684 2906 
L 4684 2381 
L 678 2381 
L 678 2906 
z
M 678 1631 
L 4684 1631 
L 4684 1100 
L 678 1100 
L 678 1631 
z
" transform="scale(0.015625)"/>
      <path id="DejaVuSans-36" d="M 2113 2584 
Q 1688 2584 1439 2293 
Q 1191 2003 1191 1497 
Q 1191 994 1439 701 
Q 1688 409 2113 409 
Q 2538 409 2786 701 
Q 3034 994 3034 1497 
Q 3034 2003 2786 2293 
Q 2538 2584 2113 2584 
z
M 3366 4563 
L 3366 3988 
Q 3128 4100 2886 4159 
Q 2644 4219 2406 4219 
Q 1781 4219 1451 3797 
Q 1122 3375 1075 2522 
Q 1259 2794 1537 2939 
Q 1816 3084 2150 3084 
Q 2853 3084 3261 2657 
Q 3669 2231 3669 1497 
Q 3669 778 3244 343 
Q 2819 -91 2113 -91 
Q 1303 -91 875 529 
Q 447 1150 447 2328 
Q 447 3434 972 4092 
Q 1497 4750 2381 4750 
Q 2619 4750 2861 4703 
Q 3103 4656 3366 4563 
z
" transform="scale(0.015625)"/>
     </defs>
     <use xlink:href="#DejaVuSans-53"/>
     <use xlink:href="#DejaVuSans-74" x="63.476562"/>
     <use xlink:href="#DejaVuSans-61" x="102.685547"/>
     <use xlink:href="#DejaVuSans-74" x="163.964844"/>
     <use xlink:href="#DejaVuSans-69" x="203.173828"/>
     <use xlink:href="#DejaVuSans-63" x="230.957031"/>
     <use xlink:href="#DejaVuSans-20" x="285.9375"/>
     <use xlink:href="#DejaVuSans-4c" x="317.724609"/>
     <use xlink:href="#DejaVuSans-6f" x="371.6875"/>
     <use xlink:href="#DejaVuSans-52" x="432.869141"/>
     <use xlink:href="#DejaVuSans-41" x="498.351562"/>
     <use xlink:href="#DejaVuSans-2b" x="566.759766"/>
     <use xlink:href="#DejaVuSans-62" x="650.548828"/>
     <use xlink:href="#DejaVuSans-69" x="714.025391"/>
     <use xlink:href="#DejaVuSans-61" x="741.808594"/>
     <use xlink:href="#DejaVuSans-73" x="803.087891"/>
     <use xlink:href="#DejaVuSans-20" x="855.1875"/>
     <use xlink:href="#DejaVuSans-65" x="886.974609"/>
     <use xlink:href="#DejaVuSans-72" x="948.498047"/>
     <use xlink:href="#DejaVuSans-72" x="987.861328"/>
     <use xlink:href="#DejaVuSans-6f" x="1026.724609"/>
     <use xlink:href="#DejaVuSans-72" x="1087.90625"/>
     <use xlink:href="#DejaVuSans-20" x="1129.019531"/>
     <use xlink:href="#DejaVuSans-76" x="1160.806641"/>
     <use xlink:href="#DejaVuSans-73" x="1219.986328"/>
     <use xlink:href="#DejaVuSans-20" x="1272.085938"/>
     <use xlink:href="#DejaVuSans-69" x="1303.873047"/>
     <use xlink:href="#DejaVuSans-6e" x="1331.65625"/>
     <use xlink:href="#DejaVuSans-74" x="1395.035156"/>
     <use xlink:href="#DejaVuSans-72" x="1434.244141"/>
     <use xlink:href="#DejaVuSans-69" x="1475.357422"/>
     <use xlink:href="#DejaVuSans-6e" x="1503.140625"/>
     <use xlink:href="#DejaVuSans-73" x="1566.519531"/>
     <use xlink:href="#DejaVuSans-69" x="1618.619141"/>
     <use xlink:href="#DejaVuSans-63" x="1646.402344"/>
     <use xlink:href="#DejaVuSans-20" x="1701.382812"/>
     <use xlink:href="#DejaVuSans-64" x="1733.169922"/>
     <use xlink:href="#DejaVuSans-69" x="1796.646484"/>
     <use xlink:href="#DejaVuSans-6d" x="1824.429688"/>
     <use xlink:href="#DejaVuSans-65" x="1921.841797"/>
     <use xlink:href="#DejaVuSans-6e" x="1983.365234"/>
     <use xlink:href="#DejaVuSans-73" x="2046.744141"/>
     <use xlink:href="#DejaVuSans-69" x="2098.84375"/>
     <use xlink:href="#DejaVuSans-6f" x="2126.626953"/>
     <use xlink:href="#DejaVuSans-6e" x="2187.808594"/>
     <use xlink:href="#DejaVuSans-20" x="2251.1875"/>
     <use xlink:href="#DejaVuSans-61" x="2282.974609"/>
     <use xlink:href="#DejaVuSans-74" x="2344.253906"/>
     <use xlink:href="#DejaVuSans-20" x="2383.462891"/>
     <use xlink:href="#DejaVuSans-71" x="2415.25"/>
     <use xlink:href="#DejaVuSans-3d" x="2478.726562"/>
     <use xlink:href="#DejaVuSans-31" x="2562.515625"/>
     <use xlink:href="#DejaVuSans-36" x="2626.138672"/>
    </g>
   </g>
   <g id="legend_1">
    <g id="patch_7">
     <path d="M 430.445312 284.24 
L 500.6 284.24 
Q 502.6 284.24 502.6 282.24 
L 502.6 224.5275 
Q 502.6 222.5275 500.6 222.5275 
L 430.445312 222.5275 
Q 428.445312 222.5275 428.445312 224.5275 
L 428.445312 282.24 
Q 428.445312 284.24 430.445312 284.24 
z
" style="fill: #ffffff; opacity: 0.8; stroke: #cccccc; stroke-linejoin: miter"/>
    </g>
    <g id="line2d_29">
     <path d="M 432.445312 230.625937 
L 442.445312 230.625937 
L 452.445312 230.625937 
" style="fill: none; stroke: #2764c5; stroke-width: 1.5; stroke-linecap: square"/>
     <g>
      <use xlink:href="#m3ab7e10218" x="442.445312" y="230.625937" style="fill: #2764c5; stroke: #2764c5"/>
     </g>
    </g>
    <g id="text_16">
     <!-- identity -->
     <g transform="translate(460.445312 234.125937) scale(0.1 -0.1)">
      <defs>
       <path id="DejaVuSans-79" d="M 2059 -325 
Q 1816 -950 1584 -1140 
Q 1353 -1331 966 -1331 
L 506 -1331 
L 506 -850 
L 844 -850 
Q 1081 -850 1212 -737 
Q 1344 -625 1503 -206 
L 1606 56 
L 191 3500 
L 800 3500 
L 1894 763 
L 2988 3500 
L 3597 3500 
L 2059 -325 
z
" transform="scale(0.015625)"/>
      </defs>
      <use xlink:href="#DejaVuSans-69"/>
      <use xlink:href="#DejaVuSans-64" x="27.783203"/>
      <use xlink:href="#DejaVuSans-65" x="91.259766"/>
      <use xlink:href="#DejaVuSans-6e" x="152.783203"/>
      <use xlink:href="#DejaVuSans-74" x="216.162109"/>
      <use xlink:href="#DejaVuSans-69" x="255.371094"/>
      <use xlink:href="#DejaVuSans-74" x="283.154297"/>
      <use xlink:href="#DejaVuSans-79" x="322.363281"/>
     </g>
    </g>
    <g id="line2d_30">
     <path d="M 432.445312 245.304062 
L 442.445312 245.304062 
L 452.445312 245.304062 
" style="fill: none; stroke: #d04a3a; stroke-width: 1.5; stroke-linecap: square"/>
     <g>
      <use xlink:href="#mef90dbf506" x="442.445312" y="245.304062" style="fill: #d04a3a; stroke: #d04a3a"/>
     </g>
    </g>
    <g id="text_17">
     <!-- relu -->
     <g transform="translate(460.445312 248.804062) scale(0.1 -0.1)">
      <use xlink:href="#DejaVuSans-72"/>
      <use xlink:href="#DejaVuSans-65" x="38.863281"/>
      <use xlink:href="#DejaVuSans-6c" x="100.386719"/>
      <use xlink:href="#DejaVuSans-75" x="128.169922"/>
     </g>
    </g>
    <g id="line2d_31">
     <path d="M 432.445312 259.982187 
L 442.445312 259.982187 
L 452.445312 259.982187 
" style="fill: none; stroke: #3a8f58; stroke-width: 1.5; stroke-linecap: square"/>
     <g>
      <use xlink:href="#mab7d10f820" x="442.445312" y="259.982187" style="fill: #3a8f58; stroke: #3a8f58"/>
     </g>
    </g>
    <g id="text_18">
     <!-- gelu -->
     <g transform="translate(460.445312 263.482187) scale(0.1 -0.1)">
      <defs>
       <path id="DejaVuSans-67" d="M 2906 1791 
Q 2906 2416 2648 2759 
Q 2391 3103 1925 3103 
Q 1463 3103 1205 2759 
Q 947 2416 947 1791 
Q 947 1169 1205 825 
Q 1463 481 1925 481 
Q 2391 481 2648 825 
Q 2906 1169 2906 1791 
z
M 3481 434 
Q 3481 -459 3084 -895 
Q 2688 -1331 1869 -1331 
Q 1566 -1331 1297 -1286 
Q 1028 -1241 775 -1147 
L 775 -588 
Q 1028 -725 1275 -790 
Q 1522 -856 1778 -856 
Q 2344 -856 2625 -561 
Q 2906 -266 2906 331 
L 2906 616 
Q 2728 306 2450 153 
Q 2172 0 1784 0 
Q 1141 0 747 490 
Q 353 981 353 1791 
Q 353 2603 747 3093 
Q 1141 3584 1784 3584 
Q 2172 3584 2450 3431 
Q 2728 3278 2906 2969 
L 2906 3500 
L 3481 3500 
L 3481 434 
z
" transform="scale(0.015625)"/>
      </defs>
      <use xlink:href="#DejaVuSans-67"/>
      <use xlink:href="#DejaVuSans-65" x="63.476562"/>
      <use xlink:href="#DejaVuSans-6c" x="125"/>
      <use xlink:href="#DejaVuSans-75" x="152.783203"/>
     </g>
    </g>
    <g id="line2d_32">
     <path d="M 432.445312 274.660312 
L 442.445312 274.660312 
L 452.445312 274.660312 
" style="fill: none; stroke: #8a4fb3; stroke-width: 1.5; stroke-linecap: square"/>
     <g>
      <use xlink:href="#m9bc7952d59" x="442.445312" y="274.660312" style="fill: #8a4fb3; stroke: #8a4fb3"/>
     </g>
    </g>
    <g id="text_19">
     <!-- tanh -->
     <g transform="translate(460.445312 278.160312) scale(0.1 -0.1)">
      <defs>
       <path id="DejaVuSans-68" d="M 3513 2113 
L 3513 0 
L 2938 0 
L 2938 2094 
Q 2938 2591 2744 2837 
Q 2550 3084 2163 3084 
Q 1697 3084 1428 2787 
Q 1159 2491 1159 1978 
L 1159 0 
L 581 0 
L 581 4863 
L 1159 4863 
L 1159 2956 
Q 1366 3272 1645 3428 
Q 1925 3584 2291 3584 
Q 2894 3584 3203 3211 
Q 3513 2838 3513 2113 
z
" transform="scale(0.015625)"/>
      </defs>
      <use xlink:href="#DejaVuSans-74"/>
      <use xlink:href="#DejaVuSans-61" x="39.208984"/>
      <use xlink:href="#DejaVuSans-6e" x="100.488281"/>
      <use xlink:href="#DejaVuSans-68" x="163.867188"/>
     </g>
    </g>
   </g>
  </g>
 </g>
 <defs>
  <clipPath id="p717b39676c">
   <rect x="47.72" y="26.88" width="459.88" height="262.36"/>
  </clipPath>
 </defs>
</svg>
